<?xml version="1.0" encoding="UTF-8" standalone="no"?>
<!-- Created with Inkscape (http://www.inkscape.org/) -->

<svg
   xmlns:dc="http://purl.org/dc/elements/1.1/"
   xmlns:cc="http://creativecommons.org/ns#"
   xmlns:rdf="http://www.w3.org/1999/02/22-rdf-syntax-ns#"
   xmlns:svg="http://www.w3.org/2000/svg"
   xmlns="http://www.w3.org/2000/svg"
   xmlns:sodipodi="http://sodipodi.sourceforge.net/DTD/sodipodi-0.dtd"
   xmlns:inkscape="http://www.inkscape.org/namespaces/inkscape"
   id="svg2"
   version="1.1"
   inkscape:version="0.48.4 r9939"
   width="671.10236"
   height="1734.0945"
   xml:space="preserve"
   sodipodi:docname="CRONOGRAMA DE AVANCE.png"
   inkscape:export-filename="/media/armin/openSUSE-13.2-DVD-x86_640051/proyecto de grado/proyecto de grado/CRONOGRAMA DE AVANCE.png"
   inkscape:export-xdpi="90"
   inkscape:export-ydpi="90"><metadata
     id="metadata8"><rdf:RDF><cc:Work
         rdf:about=""><dc:format>image/svg+xml</dc:format><dc:type
           rdf:resource="http://purl.org/dc/dcmitype/StillImage" /><dc:title></dc:title></cc:Work></rdf:RDF></metadata><defs
     id="defs6"><clipPath
       clipPathUnits="userSpaceOnUse"
       id="clipPath16"><path
         d="M 0,0 792,0 792,612 0,612 0,0 z"
         clip-rule="evenodd"
         id="path18"
         inkscape:connector-curvature="0" /></clipPath></defs><sodipodi:namedview
     pagecolor="#ffffff"
     bordercolor="#666666"
     borderopacity="1"
     objecttolerance="10"
     gridtolerance="10"
     guidetolerance="10"
     inkscape:pageopacity="0"
     inkscape:pageshadow="2"
     inkscape:window-width="1366"
     inkscape:window-height="702"
     id="namedview4"
     showgrid="false"
     units="cm"
     inkscape:zoom="0.43628026"
     inkscape:cx="964.0042"
     inkscape:cy="469.38718"
     inkscape:window-x="0"
     inkscape:window-y="27"
     inkscape:window-maximized="1"
     inkscape:current-layer="g10" /><g
     id="g10"
     inkscape:groupmode="layer"
     inkscape:label="CRONOGRAMA DE AVANCE"
     transform="matrix(1.25,0,0,-1.25,0,681.73178)"><g
       id="g12"
       transform="matrix(-0.00200586,2.2298933,-2.2298933,-0.00200586,1153.2719,-1024.9552)"><g
         id="g14"
         clip-path="url(#clipPath16)"><path
           d="m 302.3,448 72.5,0 0,26.3 -72.5,0 0,-26.3 z"
           style="fill:#ff0000;fill-opacity:1;fill-rule:evenodd;stroke:none"
           id="path20"
           inkscape:connector-curvature="0" /><path
           d="m 356.6,421.8 72.5,0 0,26.3 -72.5,0 0,-26.3 z"
           style="fill:#ff0000;fill-opacity:1;fill-rule:evenodd;stroke:none"
           id="path22"
           inkscape:connector-curvature="0" /><path
           d="m 374.7,395.5 54.4,0 0,26.3 -54.4,0 0,-26.3 z"
           style="fill:#006600;fill-opacity:1;fill-rule:evenodd;stroke:none"
           id="path24"
           inkscape:connector-curvature="0" /><path
           d="m 429.1,395.5 54.4,0 0,26.3 -54.4,0 0,-26.3 z"
           style="fill:#004586;fill-opacity:1;fill-rule:evenodd;stroke:none"
           id="path26"
           inkscape:connector-curvature="0" /><path
           d="m 483.4,395.5 54.4,0 0,26.3 -54.4,0 0,-26.3 z"
           style="fill:#0000ff;fill-opacity:1;fill-rule:evenodd;stroke:none"
           id="path28"
           inkscape:connector-curvature="0" /><path
           d="m 537.7,395.5 54.4,0 0,26.3 -54.4,0 0,-26.3 z"
           style="fill:#77216f;fill-opacity:1;fill-rule:evenodd;stroke:none"
           id="path30"
           inkscape:connector-curvature="0" /><path
           d="m 519.6,369.2 72.5,0 0,26.3 -72.5,0 0,-26.3 z"
           style="fill:#ff0000;fill-opacity:1;fill-rule:evenodd;stroke:none"
           id="path32"
           inkscape:connector-curvature="0" /><path
           d="m 555.8,343 18.1,0 0,26.3 -18.1,0 0,-26.3 z"
           style="fill:#ff3333;fill-opacity:1;fill-rule:evenodd;stroke:none"
           id="path34"
           inkscape:connector-curvature="0" /><path
           d="m 574,343 54.4,0 0,26.3 -54.4,0 0,-26.3 z"
           style="fill:#ff0000;fill-opacity:1;fill-rule:evenodd;stroke:none"
           id="path36"
           inkscape:connector-curvature="0" /><path
           d="m 592.1,316.7 36.2,0 0,26.3 -36.2,0 0,-26.3 z"
           style="fill:#ff3333;fill-opacity:1;fill-rule:evenodd;stroke:none"
           id="path38"
           inkscape:connector-curvature="0" /><path
           d="m 628.3,316.7 18.1,0 0,26.3 -18.1,0 0,-26.3 z"
           style="fill:#ff0000;fill-opacity:1;fill-rule:evenodd;stroke:none"
           id="path40"
           inkscape:connector-curvature="0" /><path
           d="m 628.3,290.4 36.2,0 0,26.3 -36.2,0 0,-26.3 z"
           style="fill:#ff3333;fill-opacity:1;fill-rule:evenodd;stroke:none"
           id="path42"
           inkscape:connector-curvature="0" /></g></g><path
       d="M 7.3822219,-836.44494 6.1470119,536.72329"
       style="fill:none;stroke:#000000;stroke-width:0.22298943;stroke-linecap:butt;stroke-linejoin:miter;stroke-miterlimit:10;stroke-opacity:1;stroke-dasharray:none"
       id="path44"
       inkscape:connector-curvature="0" /><path
       d="m 36.380732,-351.63964 -0.79913,888.3894"
       style="fill:none;stroke:#000000;stroke-width:0.22298943;stroke-linecap:butt;stroke-linejoin:miter;stroke-miterlimit:10;stroke-opacity:1;stroke-dasharray:none"
       id="path46"
       inkscape:connector-curvature="0" /><path
       d="m 65.592332,-351.61337 -0.79914,888.38941"
       style="fill:none;stroke:#000000;stroke-width:0.22298943;stroke-linecap:butt;stroke-linejoin:miter;stroke-miterlimit:10;stroke-opacity:1;stroke-dasharray:none"
       id="path48"
       inkscape:connector-curvature="0" /><path
       d="M 95.462999,-836.3657 94.227791,536.80252"
       style="fill:none;stroke:#000000;stroke-width:0.22298943;stroke-linecap:butt;stroke-linejoin:miter;stroke-miterlimit:10;stroke-opacity:1;stroke-dasharray:none"
       id="path50"
       inkscape:connector-curvature="0" /><path
       d="M 154.1092,-836.31295 152.87399,536.85527"
       style="fill:none;stroke:#000000;stroke-width:0.22298943;stroke-linecap:butt;stroke-linejoin:miter;stroke-miterlimit:10;stroke-opacity:1;stroke-dasharray:none"
       id="path52"
       inkscape:connector-curvature="0" /><path
       d="M 212.75539,-836.2602 211.52018,536.90803"
       style="fill:none;stroke:#000000;stroke-width:0.22298943;stroke-linecap:butt;stroke-linejoin:miter;stroke-miterlimit:10;stroke-opacity:1;stroke-dasharray:none"
       id="path54"
       inkscape:connector-curvature="0" /><path
       d="M 271.17859,-836.20764 269.94338,536.96058"
       style="fill:none;stroke:#000000;stroke-width:0.22298943;stroke-linecap:butt;stroke-linejoin:miter;stroke-miterlimit:10;stroke-opacity:1;stroke-dasharray:none"
       id="path56"
       inkscape:connector-curvature="0" /><path
       d="M 329.82479,-836.15489 328.58958,537.01333"
       style="fill:none;stroke:#000000;stroke-width:0.22298943;stroke-linecap:butt;stroke-linejoin:miter;stroke-miterlimit:10;stroke-opacity:1;stroke-dasharray:none"
       id="path58"
       inkscape:connector-curvature="0" /><path
       d="M 388.47097,-836.10213 387.23576,537.06609"
       style="fill:none;stroke:#000000;stroke-width:0.22298943;stroke-linecap:butt;stroke-linejoin:miter;stroke-miterlimit:10;stroke-opacity:1;stroke-dasharray:none"
       id="path60"
       inkscape:connector-curvature="0" /><path
       d="M 446.89418,-836.04958 445.65897,537.11864"
       style="fill:none;stroke:#000000;stroke-width:0.22298943;stroke-linecap:butt;stroke-linejoin:miter;stroke-miterlimit:10;stroke-opacity:1;stroke-dasharray:none"
       id="path62"
       inkscape:connector-curvature="0" /><path
       d="M 505.54038,-835.99683 504.30517,537.17139"
       style="fill:none;stroke:#000000;stroke-width:0.22298943;stroke-linecap:butt;stroke-linejoin:miter;stroke-miterlimit:10;stroke-opacity:1;stroke-dasharray:none"
       id="path64"
       inkscape:connector-curvature="0" /><path
       d="M 505.54038,-835.99683 7.3822219,-836.44494"
       style="fill:none;stroke:#000000;stroke-width:0.22298943;stroke-linecap:butt;stroke-linejoin:miter;stroke-miterlimit:10;stroke-opacity:1;stroke-dasharray:none"
       id="path66"
       inkscape:connector-curvature="0" /><path
       d="M 505.23408,-495.4921 7.0759219,-495.94021"
       style="fill:none;stroke:#000000;stroke-width:0.22298943;stroke-linecap:butt;stroke-linejoin:miter;stroke-miterlimit:10;stroke-opacity:1;stroke-dasharray:none"
       id="path68"
       inkscape:connector-curvature="0" /><path
       d="M 505.1043,-351.21801 6.9461419,-351.66612"
       style="fill:none;stroke:#000000;stroke-width:0.22298943;stroke-linecap:butt;stroke-linejoin:miter;stroke-miterlimit:10;stroke-opacity:1;stroke-dasharray:none"
       id="path70"
       inkscape:connector-curvature="0" /><path
       d="M 505.068,-310.85694 65.556022,-311.2523"
       style="fill:none;stroke:#000000;stroke-width:0.22298943;stroke-linecap:butt;stroke-linejoin:miter;stroke-miterlimit:10;stroke-opacity:1;stroke-dasharray:none"
       id="path72"
       inkscape:connector-curvature="0" /><path
       d="M 505.03169,-270.49588 65.519722,-270.89123"
       style="fill:none;stroke:#000000;stroke-width:0.22298943;stroke-linecap:butt;stroke-linejoin:miter;stroke-miterlimit:10;stroke-opacity:1;stroke-dasharray:none"
       id="path74"
       inkscape:connector-curvature="0" /><path
       d="M 504.99538,-230.1348 65.483412,-230.53016"
       style="fill:none;stroke:#000000;stroke-width:0.22298943;stroke-linecap:butt;stroke-linejoin:miter;stroke-miterlimit:10;stroke-opacity:1;stroke-dasharray:none"
       id="path76"
       inkscape:connector-curvature="0" /><path
       d="M 504.95908,-189.77374 36.235512,-190.19537"
       style="fill:none;stroke:#000000;stroke-width:0.22298943;stroke-linecap:butt;stroke-linejoin:miter;stroke-miterlimit:10;stroke-opacity:1;stroke-dasharray:none"
       id="path78"
       inkscape:connector-curvature="0" /><path
       d="M 504.92277,-149.41267 65.410802,-149.80802"
       style="fill:none;stroke:#000000;stroke-width:0.22298943;stroke-linecap:butt;stroke-linejoin:miter;stroke-miterlimit:10;stroke-opacity:1;stroke-dasharray:none"
       id="path80"
       inkscape:connector-curvature="0" /><path
       d="M 504.88646,-109.05159 65.374492,-109.44695"
       style="fill:none;stroke:#000000;stroke-width:0.22298943;stroke-linecap:butt;stroke-linejoin:miter;stroke-miterlimit:10;stroke-opacity:1;stroke-dasharray:none"
       id="path82"
       inkscape:connector-curvature="0" /><path
       d="M 504.84996,-68.46754 65.337992,-68.8629"
       style="fill:none;stroke:#000000;stroke-width:0.22298943;stroke-linecap:butt;stroke-linejoin:miter;stroke-miterlimit:10;stroke-opacity:1;stroke-dasharray:none"
       id="path84"
       inkscape:connector-curvature="0" /><path
       d="M 504.81365,-28.10647 36.090082,-28.5281"
       style="fill:none;stroke:#000000;stroke-width:0.22298943;stroke-linecap:butt;stroke-linejoin:miter;stroke-miterlimit:10;stroke-opacity:1;stroke-dasharray:none"
       id="path86"
       inkscape:connector-curvature="0" /><path
       d="M 504.77735,12.2546 65.265372,11.85924"
       style="fill:none;stroke:#000000;stroke-width:0.22298943;stroke-linecap:butt;stroke-linejoin:miter;stroke-miterlimit:10;stroke-opacity:1;stroke-dasharray:none"
       id="path88"
       inkscape:connector-curvature="0" /><path
       d="M 504.74104,52.61566 65.229072,52.22031"
       style="fill:none;stroke:#000000;stroke-width:0.22298943;stroke-linecap:butt;stroke-linejoin:miter;stroke-miterlimit:10;stroke-opacity:1;stroke-dasharray:none"
       id="path90"
       inkscape:connector-curvature="0" /><path
       d="M 504.70473,92.976735 65.192762,92.58138"
       style="fill:none;stroke:#000000;stroke-width:0.22298943;stroke-linecap:butt;stroke-linejoin:miter;stroke-miterlimit:10;stroke-opacity:1;stroke-dasharray:none"
       id="path92"
       inkscape:connector-curvature="0" /><path
       d="M 504.66843,133.3378 35.944862,132.91617"
       style="fill:none;stroke:#000000;stroke-width:0.22298943;stroke-linecap:butt;stroke-linejoin:miter;stroke-miterlimit:10;stroke-opacity:1;stroke-dasharray:none"
       id="path94"
       inkscape:connector-curvature="0" /><path
       d="M 504.63212,173.69884 65.120152,173.30349"
       style="fill:none;stroke:#000000;stroke-width:0.22298943;stroke-linecap:butt;stroke-linejoin:miter;stroke-miterlimit:10;stroke-opacity:1;stroke-dasharray:none"
       id="path96"
       inkscape:connector-curvature="0" /><path
       d="M 504.59582,214.05993 65.083842,213.66457"
       style="fill:none;stroke:#000000;stroke-width:0.22298943;stroke-linecap:butt;stroke-linejoin:miter;stroke-miterlimit:10;stroke-opacity:1;stroke-dasharray:none"
       id="path98"
       inkscape:connector-curvature="0" /><path
       d="M 504.55951,254.42101 65.047542,254.02565"
       style="fill:none;stroke:#000000;stroke-width:0.22298943;stroke-linecap:butt;stroke-linejoin:miter;stroke-miterlimit:10;stroke-opacity:1;stroke-dasharray:none"
       id="path100"
       inkscape:connector-curvature="0" /><path
       d="M 504.5232,294.78199 35.799632,294.36036"
       style="fill:none;stroke:#000000;stroke-width:0.22298943;stroke-linecap:butt;stroke-linejoin:miter;stroke-miterlimit:10;stroke-opacity:1;stroke-dasharray:none"
       id="path102"
       inkscape:connector-curvature="0" /><path
       d="M 504.4867,335.36618 64.974722,334.97082"
       style="fill:none;stroke:#000000;stroke-width:0.22298943;stroke-linecap:butt;stroke-linejoin:miter;stroke-miterlimit:10;stroke-opacity:1;stroke-dasharray:none"
       id="path104"
       inkscape:connector-curvature="0" /><path
       d="M 504.45039,375.72716 64.938422,375.33181"
       style="fill:none;stroke:#000000;stroke-width:0.22298943;stroke-linecap:butt;stroke-linejoin:miter;stroke-miterlimit:10;stroke-opacity:1;stroke-dasharray:none"
       id="path106"
       inkscape:connector-curvature="0" /><path
       d="M 504.41408,416.08824 64.902112,415.69289"
       style="fill:none;stroke:#000000;stroke-width:0.22298943;stroke-linecap:butt;stroke-linejoin:miter;stroke-miterlimit:10;stroke-opacity:1;stroke-dasharray:none"
       id="path108"
       inkscape:connector-curvature="0" /><path
       d="M 504.37778,456.44933 35.654212,456.0277"
       style="fill:none;stroke:#000000;stroke-width:0.22298943;stroke-linecap:butt;stroke-linejoin:miter;stroke-miterlimit:10;stroke-opacity:1;stroke-dasharray:none"
       id="path110"
       inkscape:connector-curvature="0" /><path
       d="M 504.34147,496.81041 64.829502,496.41506"
       style="fill:none;stroke:#000000;stroke-width:0.22298943;stroke-linecap:butt;stroke-linejoin:miter;stroke-miterlimit:10;stroke-opacity:1;stroke-dasharray:none"
       id="path112"
       inkscape:connector-curvature="0" /><path
       d="M 504.30517,537.17139 6.1470119,536.72329"
       style="fill:none;stroke:#000000;stroke-width:0.22298943;stroke-linecap:butt;stroke-linejoin:miter;stroke-miterlimit:10;stroke-opacity:1;stroke-dasharray:none"
       id="path114"
       inkscape:connector-curvature="0" /><g
       id="g116"
       transform="matrix(-0.00200586,2.2298933,-2.2298933,-0.00200586,1153.2719,-1024.9552)"><text
         transform="matrix(1,0,0,-1,124.1,490.4)"
         id="text118"><tspan
           style="font-size:10.60000038px;font-variant:normal;font-weight:bold;writing-mode:lr-tb;fill:#000000;fill-opacity:1;fill-rule:nonzero;stroke:none;font-family:Times New Roman;-inkscape-font-specification:TimesNewRomanPS-BoldMT"
           x="0 7.6849999 15.37 22.461399 26.563601 34.2486 38.3508 46.035801 53.720798 61.4058 68.4972"
           y="0"
           sodipodi:role="line"
           id="tspan120">ACTIVIDADES</tspan></text>
</g><g
       id="g122"
       transform="matrix(-0.00200586,2.2298933,-2.2298933,-0.00200586,1153.2719,-1024.9552)"><text
         transform="matrix(1,0,0,-1,402.4,503.8)"
         id="text124"><tspan
           style="font-size:10.60000038px;font-variant:normal;font-weight:bold;writing-mode:lr-tb;fill:#000000;fill-opacity:1;fill-rule:nonzero;stroke:none;font-family:Times New Roman;-inkscape-font-specification:TimesNewRomanPS-BoldMT"
           x="0 7.6849999 14.7764 21.2742 23.9666 29.2666 31.959 39.644001 46.735401 49.427799 54.727798 62.4128 69.504204 73.6064 81.810799 83.909599 91.594597 98.0924 100.7848 106.0848 111.3848 114.0772 121.7622 128.85361 131.54601 139.231 147.43539 155.12041 159.2226 166.314 176.3098 183.4012 191.0862"
           y="0"
           sodipodi:role="line"
           id="tspan126">DEL 1 DE JULIO AL 30 DE NOVIEMBRE</tspan></text>
</g><g
       id="g128"
       transform="matrix(-0.00200586,2.2298933,-2.2298933,-0.00200586,1153.2719,-1024.9552)"><text
         transform="matrix(1,0,0,-1,322.4,490.6)"
         id="text130"><tspan
           style="font-size:10.60000038px;font-variant:normal;font-weight:bold;writing-mode:lr-tb;fill:#000000;fill-opacity:1;fill-rule:nonzero;stroke:none;font-family:Times New Roman;-inkscape-font-specification:TimesNewRomanPS-BoldMT"
           x="0 5.3000002 12.985 20.076401 24.1786"
           y="0"
           sodipodi:role="line"
           id="tspan132">JULIO</tspan></text>
</g><g
       id="g134"
       transform="matrix(-0.00200586,2.2298933,-2.2298933,-0.00200586,1153.2719,-1024.9552)"><text
         transform="matrix(1,0,0,-1,388.5,490.6)"
         id="text136"><tspan
           style="font-size:10.60000038px;font-variant:normal;font-weight:bold;writing-mode:lr-tb;fill:#000000;fill-opacity:1;fill-rule:nonzero;stroke:none;font-family:Times New Roman;-inkscape-font-specification:TimesNewRomanPS-BoldMT"
           x="0 7.6849999 15.8894 24.0938 29.9874 36.888"
           y="0"
           sodipodi:role="line"
           id="tspan138">AGOSTO</tspan></text>
</g><g
       id="g140"
       transform="matrix(-0.00200586,2.2298933,-2.2298933,-0.00200586,1153.2719,-1024.9552)"><text
         transform="matrix(1,0,0,-1,448.6,490.6)"
         id="text142"><tspan
           style="font-size:10.60000038px;font-variant:normal;font-weight:bold;writing-mode:lr-tb;fill:#000000;fill-opacity:1;fill-rule:nonzero;stroke:none;font-family:Times New Roman;-inkscape-font-specification:TimesNewRomanPS-BoldMT"
           x="0 5.8936 12.985 19.4722 26.563601 30.6658 37.757198 47.752998 54.844398 62.5294"
           y="0"
           sodipodi:role="line"
           id="tspan144">SEPTIEMBRE</tspan></text>
</g><g
       id="g146"
       transform="matrix(-0.00200586,2.2298933,-2.2298933,-0.00200586,1153.2719,-1024.9552)"><text
         transform="matrix(1,0,0,-1,529.6,490.6)"
         id="text148"><tspan
           style="font-size:10.60000038px;font-variant:normal;font-weight:bold;writing-mode:lr-tb;fill:#000000;fill-opacity:1;fill-rule:nonzero;stroke:none;font-family:Times New Roman;-inkscape-font-specification:TimesNewRomanPS-BoldMT"
           x="0 8.2044001 15.8894 22.980801 30.6658 37.757198 45.4422"
           y="0"
           sodipodi:role="line"
           id="tspan150">OCTUBRE</tspan></text>
</g><g
       id="g152"
       transform="matrix(-0.00200586,2.2298933,-2.2298933,-0.00200586,1153.2719,-1024.9552)"><text
         transform="matrix(1,0,0,-1,595,490.6)"
         id="text154"><tspan
           style="font-size:10.60000038px;font-variant:normal;font-weight:bold;writing-mode:lr-tb;fill:#000000;fill-opacity:1;fill-rule:nonzero;stroke:none;font-family:Times New Roman;-inkscape-font-specification:TimesNewRomanPS-BoldMT"
           x="0 7.6849999 15.8894 23.5744 27.6766 34.768002 44.763802 51.855202 59.540199"
           y="0"
           sodipodi:role="line"
           id="tspan156">NOVIEMBRE</tspan></text>
</g><g
       id="g158"
       transform="matrix(-0.00200586,2.2298933,-2.2298933,-0.00200586,1153.2719,-1024.9552)"><text
         transform="matrix(1,0,0,-1,672.9,490.6)"
         id="text160"><tspan
           style="font-size:10.60000038px;font-variant:normal;font-weight:bold;writing-mode:lr-tb;fill:#000000;fill-opacity:1;fill-rule:nonzero;stroke:none;font-family:Times New Roman;-inkscape-font-specification:TimesNewRomanPS-BoldMT"
           x="0 7.6849999 11.7872"
           y="0"
           sodipodi:role="line"
           id="tspan162">DIC</tspan></text>
</g><g
       id="g164"
       transform="matrix(-0.00200586,2.2298933,-2.2298933,-0.00200586,1153.2719,-1024.9552)"><text
         transform="matrix(1,0,0,-1,308.8,477.4)"
         id="text166"><tspan
           style="font-size:10.60000038px;font-variant:normal;font-weight:bold;writing-mode:lr-tb;fill:#000000;fill-opacity:1;fill-rule:nonzero;stroke:none;font-family:Times New Roman;-inkscape-font-specification:TimesNewRomanPS-BoldMT"
           x="0"
           y="0"
           id="tspan168">1</tspan></text>
</g><g
       id="g170"
       transform="matrix(-0.00200586,2.2298933,-2.2298933,-0.00200586,1153.2719,-1024.9552)"><text
         transform="matrix(1,0,0,-1,326.9,477.4)"
         id="text172"><tspan
           style="font-size:10.60000038px;font-variant:normal;font-weight:bold;writing-mode:lr-tb;fill:#000000;fill-opacity:1;fill-rule:nonzero;stroke:none;font-family:Times New Roman;-inkscape-font-specification:TimesNewRomanPS-BoldMT"
           x="0"
           y="0"
           id="tspan174">2</tspan></text>
</g><g
       id="g176"
       transform="matrix(-0.00200586,2.2298933,-2.2298933,-0.00200586,1153.2719,-1024.9552)"><text
         transform="matrix(1,0,0,-1,345,477.4)"
         id="text178"><tspan
           style="font-size:10.60000038px;font-variant:normal;font-weight:bold;writing-mode:lr-tb;fill:#000000;fill-opacity:1;fill-rule:nonzero;stroke:none;font-family:Times New Roman;-inkscape-font-specification:TimesNewRomanPS-BoldMT"
           x="0"
           y="0"
           id="tspan180">3</tspan></text>
</g><g
       id="g182"
       transform="matrix(-0.00200586,2.2298933,-2.2298933,-0.00200586,1153.2719,-1024.9552)"><text
         transform="matrix(1,0,0,-1,363.1,477.4)"
         id="text184"><tspan
           style="font-size:10.60000038px;font-variant:normal;font-weight:bold;writing-mode:lr-tb;fill:#000000;fill-opacity:1;fill-rule:nonzero;stroke:none;font-family:Times New Roman;-inkscape-font-specification:TimesNewRomanPS-BoldMT"
           x="0"
           y="0"
           id="tspan186">4</tspan></text>
</g><g
       id="g188"
       transform="matrix(-0.00200586,2.2298933,-2.2298933,-0.00200586,1153.2719,-1024.9552)"><text
         transform="matrix(1,0,0,-1,381.2,477.4)"
         id="text190"><tspan
           style="font-size:10.60000038px;font-variant:normal;font-weight:bold;writing-mode:lr-tb;fill:#000000;fill-opacity:1;fill-rule:nonzero;stroke:none;font-family:Times New Roman;-inkscape-font-specification:TimesNewRomanPS-BoldMT"
           x="0"
           y="0"
           id="tspan192">1</tspan></text>
</g><g
       id="g194"
       transform="matrix(-0.00200586,2.2298933,-2.2298933,-0.00200586,1153.2719,-1024.9552)"><text
         transform="matrix(1,0,0,-1,399.3,477.4)"
         id="text196"><tspan
           style="font-size:10.60000038px;font-variant:normal;font-weight:bold;writing-mode:lr-tb;fill:#000000;fill-opacity:1;fill-rule:nonzero;stroke:none;font-family:Times New Roman;-inkscape-font-specification:TimesNewRomanPS-BoldMT"
           x="0"
           y="0"
           id="tspan198">2</tspan></text>
</g><g
       id="g200"
       transform="matrix(-0.00200586,2.2298933,-2.2298933,-0.00200586,1153.2719,-1024.9552)"><text
         transform="matrix(1,0,0,-1,417.5,477.4)"
         id="text202"><tspan
           style="font-size:10.60000038px;font-variant:normal;font-weight:bold;writing-mode:lr-tb;fill:#000000;fill-opacity:1;fill-rule:nonzero;stroke:none;font-family:Times New Roman;-inkscape-font-specification:TimesNewRomanPS-BoldMT"
           x="0"
           y="0"
           id="tspan204">3</tspan></text>
</g><g
       id="g206"
       transform="matrix(-0.00200586,2.2298933,-2.2298933,-0.00200586,1153.2719,-1024.9552)"><text
         transform="matrix(1,0,0,-1,435.6,477.4)"
         id="text208"><tspan
           style="font-size:10.60000038px;font-variant:normal;font-weight:bold;writing-mode:lr-tb;fill:#000000;fill-opacity:1;fill-rule:nonzero;stroke:none;font-family:Times New Roman;-inkscape-font-specification:TimesNewRomanPS-BoldMT"
           x="0"
           y="0"
           id="tspan210">4</tspan></text>
</g><g
       id="g212"
       transform="matrix(-0.00200586,2.2298933,-2.2298933,-0.00200586,1153.2719,-1024.9552)"><text
         transform="matrix(1,0,0,-1,453.7,477.4)"
         id="text214"><tspan
           style="font-size:10.60000038px;font-variant:normal;font-weight:bold;writing-mode:lr-tb;fill:#000000;fill-opacity:1;fill-rule:nonzero;stroke:none;font-family:Times New Roman;-inkscape-font-specification:TimesNewRomanPS-BoldMT"
           x="0"
           y="0"
           id="tspan216">1</tspan></text>
</g><g
       id="g218"
       transform="matrix(-0.00200586,2.2298933,-2.2298933,-0.00200586,1153.2719,-1024.9552)"><text
         transform="matrix(1,0,0,-1,471.8,477.4)"
         id="text220"><tspan
           style="font-size:10.60000038px;font-variant:normal;font-weight:bold;writing-mode:lr-tb;fill:#000000;fill-opacity:1;fill-rule:nonzero;stroke:none;font-family:Times New Roman;-inkscape-font-specification:TimesNewRomanPS-BoldMT"
           x="0"
           y="0"
           id="tspan222">2</tspan></text>
</g><g
       id="g224"
       transform="matrix(-0.00200586,2.2298933,-2.2298933,-0.00200586,1153.2719,-1024.9552)"><text
         transform="matrix(1,0,0,-1,489.9,477.4)"
         id="text226"><tspan
           style="font-size:10.60000038px;font-variant:normal;font-weight:bold;writing-mode:lr-tb;fill:#000000;fill-opacity:1;fill-rule:nonzero;stroke:none;font-family:Times New Roman;-inkscape-font-specification:TimesNewRomanPS-BoldMT"
           x="0"
           y="0"
           id="tspan228">3</tspan></text>
</g><g
       id="g230"
       transform="matrix(-0.00200586,2.2298933,-2.2298933,-0.00200586,1153.2719,-1024.9552)"><text
         transform="matrix(1,0,0,-1,508,477.4)"
         id="text232"><tspan
           style="font-size:10.60000038px;font-variant:normal;font-weight:bold;writing-mode:lr-tb;fill:#000000;fill-opacity:1;fill-rule:nonzero;stroke:none;font-family:Times New Roman;-inkscape-font-specification:TimesNewRomanPS-BoldMT"
           x="0"
           y="0"
           id="tspan234">4</tspan></text>
</g><g
       id="g236"
       transform="matrix(-0.00200586,2.2298933,-2.2298933,-0.00200586,1153.2719,-1024.9552)"><text
         transform="matrix(1,0,0,-1,526.1,477.4)"
         id="text238"><tspan
           style="font-size:10.60000038px;font-variant:normal;font-weight:bold;writing-mode:lr-tb;fill:#000000;fill-opacity:1;fill-rule:nonzero;stroke:none;font-family:Times New Roman;-inkscape-font-specification:TimesNewRomanPS-BoldMT"
           x="0"
           y="0"
           id="tspan240">1</tspan></text>
</g><g
       id="g242"
       transform="matrix(-0.00200586,2.2298933,-2.2298933,-0.00200586,1153.2719,-1024.9552)"><text
         transform="matrix(1,0,0,-1,544.2,477.4)"
         id="text244"><tspan
           style="font-size:10.60000038px;font-variant:normal;font-weight:bold;writing-mode:lr-tb;fill:#000000;fill-opacity:1;fill-rule:nonzero;stroke:none;font-family:Times New Roman;-inkscape-font-specification:TimesNewRomanPS-BoldMT"
           x="0"
           y="0"
           id="tspan246">2</tspan></text>
</g><g
       id="g248"
       transform="matrix(-0.00200586,2.2298933,-2.2298933,-0.00200586,1153.2719,-1024.9552)"><text
         transform="matrix(1,0,0,-1,562.3,477.4)"
         id="text250"><tspan
           style="font-size:10.60000038px;font-variant:normal;font-weight:bold;writing-mode:lr-tb;fill:#000000;fill-opacity:1;fill-rule:nonzero;stroke:none;font-family:Times New Roman;-inkscape-font-specification:TimesNewRomanPS-BoldMT"
           x="0"
           y="0"
           id="tspan252">3</tspan></text>
</g><g
       id="g254"
       transform="matrix(-0.00200586,2.2298933,-2.2298933,-0.00200586,1153.2719,-1024.9552)"><text
         transform="matrix(1,0,0,-1,580.4,477.4)"
         id="text256"><tspan
           style="font-size:10.60000038px;font-variant:normal;font-weight:bold;writing-mode:lr-tb;fill:#000000;fill-opacity:1;fill-rule:nonzero;stroke:none;font-family:Times New Roman;-inkscape-font-specification:TimesNewRomanPS-BoldMT"
           x="0"
           y="0"
           id="tspan258">4</tspan></text>
</g><g
       id="g260"
       transform="matrix(-0.00200586,2.2298933,-2.2298933,-0.00200586,1153.2719,-1024.9552)"><text
         transform="matrix(1,0,0,-1,598.6,477.4)"
         id="text262"><tspan
           style="font-size:10.60000038px;font-variant:normal;font-weight:bold;writing-mode:lr-tb;fill:#000000;fill-opacity:1;fill-rule:nonzero;stroke:none;font-family:Times New Roman;-inkscape-font-specification:TimesNewRomanPS-BoldMT"
           x="0"
           y="0"
           id="tspan264">1</tspan></text>
</g><g
       id="g266"
       transform="matrix(-0.00200586,2.2298933,-2.2298933,-0.00200586,1153.2719,-1024.9552)"><text
         transform="matrix(1,0,0,-1,616.7,477.4)"
         id="text268"><tspan
           style="font-size:10.60000038px;font-variant:normal;font-weight:bold;writing-mode:lr-tb;fill:#000000;fill-opacity:1;fill-rule:nonzero;stroke:none;font-family:Times New Roman;-inkscape-font-specification:TimesNewRomanPS-BoldMT"
           x="0"
           y="0"
           id="tspan270">2</tspan></text>
</g><g
       id="g272"
       transform="matrix(-0.00200586,2.2298933,-2.2298933,-0.00200586,1153.2719,-1024.9552)"><text
         transform="matrix(1,0,0,-1,634.8,477.4)"
         id="text274"><tspan
           style="font-size:10.60000038px;font-variant:normal;font-weight:bold;writing-mode:lr-tb;fill:#000000;fill-opacity:1;fill-rule:nonzero;stroke:none;font-family:Times New Roman;-inkscape-font-specification:TimesNewRomanPS-BoldMT"
           x="0"
           y="0"
           id="tspan276">3</tspan></text>
</g><g
       id="g278"
       transform="matrix(-0.00200586,2.2298933,-2.2298933,-0.00200586,1153.2719,-1024.9552)"><text
         transform="matrix(1,0,0,-1,652.9,477.4)"
         id="text280"><tspan
           style="font-size:10.60000038px;font-variant:normal;font-weight:bold;writing-mode:lr-tb;fill:#000000;fill-opacity:1;fill-rule:nonzero;stroke:none;font-family:Times New Roman;-inkscape-font-specification:TimesNewRomanPS-BoldMT"
           x="0"
           y="0"
           id="tspan282">4</tspan></text>
</g><g
       id="g284"
       transform="matrix(-0.00200586,2.2298933,-2.2298933,-0.00200586,1153.2719,-1024.9552)"><text
         transform="matrix(1,0,0,-1,671,477.4)"
         id="text286"><tspan
           style="font-size:10.60000038px;font-variant:normal;font-weight:bold;writing-mode:lr-tb;fill:#000000;fill-opacity:1;fill-rule:nonzero;stroke:none;font-family:Times New Roman;-inkscape-font-specification:TimesNewRomanPS-BoldMT"
           x="0"
           y="0"
           id="tspan288">1</tspan></text>
</g><g
       id="g290"
       transform="matrix(-0.00200586,2.2298933,-2.2298933,-0.00200586,1153.2719,-1024.9552)"><text
         transform="matrix(1,0,0,-1,689.1,477.4)"
         id="text292"><tspan
           style="font-size:10.60000038px;font-variant:normal;font-weight:bold;writing-mode:lr-tb;fill:#000000;fill-opacity:1;fill-rule:nonzero;stroke:none;font-family:Times New Roman;-inkscape-font-specification:TimesNewRomanPS-BoldMT"
           x="0"
           y="0"
           id="tspan294">2</tspan></text>
</g><g
       id="g296"
       transform="matrix(-0.00200586,2.2298933,-2.2298933,-0.00200586,1153.2719,-1024.9552)"><text
         transform="matrix(1,0,0,-1,290.9,457.5)"
         id="text298"><tspan
           style="font-size:10.60000038px;font-variant:normal;font-weight:normal;writing-mode:lr-tb;fill:#000000;fill-opacity:1;fill-rule:nonzero;stroke:none;font-family:Times New Roman;-inkscape-font-specification:TimesNewRomanPSMT"
           x="0 5.3000002"
           y="0"
           sodipodi:role="line"
           id="tspan300">20</tspan></text>
</g><g
       id="g302"
       transform="matrix(-0.00200586,2.2298933,-2.2298933,-0.00200586,1153.2719,-1024.9552)"><text
         transform="matrix(1,0,0,-1,290.9,431.2)"
         id="text304"><tspan
           style="font-size:10.60000038px;font-variant:normal;font-weight:normal;writing-mode:lr-tb;fill:#000000;fill-opacity:1;fill-rule:nonzero;stroke:none;font-family:Times New Roman;-inkscape-font-specification:TimesNewRomanPSMT"
           x="0 5.3000002"
           y="0"
           sodipodi:role="line"
           id="tspan306">25</tspan></text>
</g><g
       id="g308"
       transform="matrix(-0.00200586,2.2298933,-2.2298933,-0.00200586,1153.2719,-1024.9552)"><text
         transform="matrix(1,0,0,-1,290.9,405)"
         id="text310"><tspan
           style="font-size:10.60000038px;font-variant:normal;font-weight:normal;writing-mode:lr-tb;fill:#000000;fill-opacity:1;fill-rule:nonzero;stroke:none;font-family:Times New Roman;-inkscape-font-specification:TimesNewRomanPSMT"
           x="0 5.3000002"
           y="0"
           sodipodi:role="line"
           id="tspan312">50</tspan></text>
</g><g
       id="g314"
       transform="matrix(-0.00200586,2.2298933,-2.2298933,-0.00200586,1153.2719,-1024.9552)"><text
         transform="matrix(1,0,0,-1,290.9,378.7)"
         id="text316"><tspan
           style="font-size:10.60000038px;font-variant:normal;font-weight:normal;writing-mode:lr-tb;fill:#000000;fill-opacity:1;fill-rule:nonzero;stroke:none;font-family:Times New Roman;-inkscape-font-specification:TimesNewRomanPSMT"
           x="0 5.3000002"
           y="0"
           sodipodi:role="line"
           id="tspan318">20</tspan></text>
</g><g
       id="g320"
       transform="matrix(-0.00200586,2.2298933,-2.2298933,-0.00200586,1153.2719,-1024.9552)"><text
         transform="matrix(1,0,0,-1,290.9,352.4)"
         id="text322"><tspan
           style="font-size:10.60000038px;font-variant:normal;font-weight:normal;writing-mode:lr-tb;fill:#000000;fill-opacity:1;fill-rule:nonzero;stroke:none;font-family:Times New Roman;-inkscape-font-specification:TimesNewRomanPSMT"
           x="0 5.3000002"
           y="0"
           sodipodi:role="line"
           id="tspan324">20</tspan></text>
</g><g
       id="g326"
       transform="matrix(-0.00200586,2.2298933,-2.2298933,-0.00200586,1153.2719,-1024.9552)"><text
         transform="matrix(1,0,0,-1,290.9,326.2)"
         id="text328"><tspan
           style="font-size:10.60000038px;font-variant:normal;font-weight:normal;writing-mode:lr-tb;fill:#000000;fill-opacity:1;fill-rule:nonzero;stroke:none;font-family:Times New Roman;-inkscape-font-specification:TimesNewRomanPSMT"
           x="0 5.3000002"
           y="0"
           sodipodi:role="line"
           id="tspan330">15</tspan></text>
</g><g
       id="g332" /><g
       id="g334"
       transform="matrix(-0.00200586,2.2298933,-2.2298933,-0.00200586,1153.2719,-1024.9552)"><text
         transform="matrix(1,0,0,-1,290.9,299.9)"
         id="text336"><tspan
           style="font-size:10.60000038px;font-variant:normal;font-weight:normal;writing-mode:lr-tb;fill:#000000;fill-opacity:1;fill-rule:nonzero;stroke:none;font-family:Times New Roman;-inkscape-font-specification:TimesNewRomanPSMT"
           x="0 5.3000002"
           y="0"
           sodipodi:role="line"
           id="tspan338">10</tspan></text>
</g><g
       id="g340"
       transform="matrix(-0.00200586,2.2298933,-2.2298933,-0.00200586,1153.2719,-1024.9552)"><text
         transform="matrix(1,0,0,-1,240.9,496.3)"
         id="text342"><tspan
           style="font-size:10.60000038px;font-variant:normal;font-weight:bold;writing-mode:lr-tb;fill:#000000;fill-opacity:1;fill-rule:nonzero;stroke:none;font-family:Times New Roman;-inkscape-font-specification:TimesNewRomanPS-BoldMT"
           x="0 7.6849999 15.37 22.9702 30.655199 38.255402 42.357601 50.562 58.247002"
           y="0"
           sodipodi:role="line"
           id="tspan344">DURACIÓN </tspan></text>
</g><g
       id="g346"
       transform="matrix(-0.00200586,2.2298933,-2.2298933,-0.00200586,1153.2719,-1024.9552)"><text
         transform="matrix(1,0,0,-1,248.7,484.6)"
         id="text348"><tspan
           style="font-size:10.60000038px;font-variant:normal;font-weight:bold;writing-mode:lr-tb;fill:#000000;fill-opacity:1;fill-rule:nonzero;stroke:none;font-family:Times New Roman;-inkscape-font-specification:TimesNewRomanPS-BoldMT"
           x="0 7.0914001 14.6916 17.384001 24.9842 29.1712 36.7714"
           y="0"
           sodipodi:role="line"
           id="tspan350">EN DÍAS</tspan></text>
</g><g
       id="g352"
       transform="matrix(-0.00200586,2.2298933,-2.2298933,-0.00200586,1153.2719,-1024.9552)"><text
         transform="matrix(1,0,0,-1,85.9,463.4)"
         id="text354"><tspan
           style="font-size:10.60000038px;font-variant:normal;font-weight:bold;writing-mode:lr-tb;fill:#000000;fill-opacity:1;fill-rule:nonzero;stroke:none;font-family:Times New Roman;-inkscape-font-specification:TimesNewRomanPS-BoldMT"
           x="0 7.6002002 12.296 18.1896 23.489599 28.09 32.785801 35.690201 40.9902 46.883801 49.480801 55.374401 60.070202 62.974602 65.571602 73.256599 78.461197 84.354797 87.259201 90.8526 96.746201 99.650597 104.9506 107.5476 111.6498 115.8368 118.4338 121.9318"
           y="0"
           sodipodi:role="line"
           id="tspan356">Redacción del Capitulo II - </tspan></text>
</g><g
       id="g358"
       transform="matrix(-0.00200586,2.2298933,-2.2298933,-0.00200586,1153.2719,-1024.9552)"><text
         transform="matrix(1,0,0,-1,85.9,451.7)"
         id="text360"><tspan
           style="font-size:10.60000038px;font-variant:normal;font-weight:bold;writing-mode:lr-tb;fill:#000000;fill-opacity:1;fill-rule:nonzero;stroke:none;font-family:Times New Roman;-inkscape-font-specification:TimesNewRomanPS-BoldMT"
           x="0 9.9004002 15.2004 19.8008 24.305799 29.605801 32.202801 38.605202 42.707401 48.007401 52.703201 55.607601 60.303398"
           y="0"
           sodipodi:role="line"
           id="tspan362">Marco Teórico</tspan></text>
</g><g
       id="g364"
       transform="matrix(-0.00200586,2.2298933,-2.2298933,-0.00200586,1153.2719,-1024.9552)"><text
         transform="matrix(1,0,0,-1,85.9,437.1)"
         id="text366"><tspan
           style="font-size:10.60000038px;font-variant:normal;font-weight:bold;writing-mode:lr-tb;fill:#000000;fill-opacity:1;fill-rule:nonzero;stroke:none;font-family:Times New Roman;-inkscape-font-specification:TimesNewRomanPS-BoldMT"
           x="0 7.6002002 12.296 16.398199 21.6982 26.393999 30.899 36.1036 39.007999 41.912399 47.212399 49.9048 55.798401 60.3988 63.3032 65.995598 73.595802 78.895798 84.789398 87.693802 91.191803 97.085403 99.989799 105.2898 107.8868 112.0738 116.176 120.2782 122.9706 126.4686"
           y="0"
           sodipodi:role="line"
           id="tspan368">Desarrollo del Capitulo III - </tspan></text>
</g><g
       id="g370"
       transform="matrix(-0.00200586,2.2298933,-2.2298933,-0.00200586,1153.2719,-1024.9552)"><text
         transform="matrix(1,0,0,-1,85.9,425.4)"
         id="text372"><tspan
           style="font-size:10.60000038px;font-variant:normal;font-weight:bold;writing-mode:lr-tb;fill:#000000;fill-opacity:1;fill-rule:nonzero;stroke:none;font-family:Times New Roman;-inkscape-font-specification:TimesNewRomanPS-BoldMT"
           x="0 9.9004002 15.2004 19.8008 24.305799 29.605801 31.906 39.2094 45.103001 48.007401 50.9118 55.607601 60.9076 64.405602 67.309998 72.514603"
           y="0"
           sodipodi:role="line"
           id="tspan374">Marco Aplicativo</tspan></text>
</g><g
       id="g376"
       transform="matrix(-0.00200586,2.2298933,-2.2298933,-0.00200586,1153.2719,-1024.9552)"><text
         transform="matrix(1,0,0,-1,85.9,410.9)"
         id="text378"><tspan
           style="font-size:10.60000038px;font-variant:normal;font-weight:bold;writing-mode:lr-tb;fill:#000000;fill-opacity:1;fill-rule:nonzero;stroke:none;font-family:Times New Roman;-inkscape-font-specification:TimesNewRomanPS-BoldMT"
           x="0 4.1022 7.6002002 12.296 16.8964 22.1964 26.8922 29.7966 35.0966 40.9902 45.590599 49.777599 52.374599 58.2682 62.964001 65.560997 68.465401 73.765404 76.362396 85.1604 89.856201 93.354202 98.654198 104.5478 109.8478 112.7522 117.9568 123.2568 126.1612 131.4612 134.15359 140.0472 144.6476"
           y="0"
           sodipodi:role="line"
           id="tspan380">Iteraciones de la metodología de </tspan></text>
</g><g
       id="g382"
       transform="matrix(-0.00200586,2.2298933,-2.2298933,-0.00200586,1153.2719,-1024.9552)"><text
         transform="matrix(1,0,0,-1,85.9,399.2)"
         id="text384"><tspan
           style="font-size:10.60000038px;font-variant:normal;font-weight:bold;writing-mode:lr-tb;fill:#000000;fill-opacity:1;fill-rule:nonzero;stroke:none;font-family:Times New Roman;-inkscape-font-specification:TimesNewRomanPS-BoldMT"
           x="0 5.7982001 10.494 14.681 19.885599 24.5814 29.181801 34.386398 37.290798 40.195202 45.495201 48.092201 55.777199"
           y="0"
           sodipodi:role="line"
           id="tspan386">desarrollo XP</tspan></text>
</g><g
       id="g388"
       transform="matrix(-0.00200586,2.2298933,-2.2298933,-0.00200586,1153.2719,-1024.9552)"><text
         transform="matrix(1,0,0,-1,85.9,384.6)"
         id="text390"><tspan
           style="font-size:10.60000038px;font-variant:normal;font-weight:bold;writing-mode:lr-tb;fill:#000000;fill-opacity:1;fill-rule:nonzero;stroke:none;font-family:Times New Roman;-inkscape-font-specification:TimesNewRomanPS-BoldMT"
           x="0 7.6002002 12.296 18.1896 23.489599 28.09 32.785801 35.690201 40.9902 46.883801 49.480801 55.374401 60.070202 62.974602 65.571602 73.256599 78.461197 84.354797 87.259201 90.8526 96.746201 99.650597 104.9506 107.5476 111.6498 115.8368 119.939 122.536 126.1294"
           y="0"
           sodipodi:role="line"
           id="tspan392">Redacción del Capitulo III - </tspan></text>
</g><g
       id="g394"
       transform="matrix(-0.00200586,2.2298933,-2.2298933,-0.00200586,1153.2719,-1024.9552)"><text
         transform="matrix(1,0,0,-1,85.9,372.9)"
         id="text396"><tspan
           style="font-size:10.60000038px;font-variant:normal;font-weight:bold;writing-mode:lr-tb;fill:#000000;fill-opacity:1;fill-rule:nonzero;stroke:none;font-family:Times New Roman;-inkscape-font-specification:TimesNewRomanPS-BoldMT"
           x="0 9.9004002 15.2004 19.8008 24.305799 29.605801 31.906 39.2094 45.103001 48.007401 50.9118 55.607601 60.9076 64.405602 67.309998 72.514603"
           y="0"
           sodipodi:role="line"
           id="tspan398">Marco Aplicativo</tspan></text>
</g><g
       id="g400"
       transform="matrix(-0.00200586,2.2298933,-2.2298933,-0.00200586,1153.2719,-1024.9552)"><text
         transform="matrix(1,0,0,-1,85.9,358.3)"
         id="text402"><tspan
           style="font-size:10.60000038px;font-variant:normal;font-weight:bold;writing-mode:lr-tb;fill:#000000;fill-opacity:1;fill-rule:nonzero;stroke:none;font-family:Times New Roman;-inkscape-font-specification:TimesNewRomanPS-BoldMT"
           x="0 7.6002002 12.296 18.1896 23.489599 28.09 32.785801 35.690201 40.9902 46.883801 49.480801 55.374401 60.070202 62.974602 65.571602 73.256599 78.461197 84.354797 87.259201 90.8526 96.746201 99.650597 104.9506 107.5476 111.6498 119.25 121.7516 127.0516"
           y="0"
           sodipodi:role="line"
           id="tspan404">Redacción del Capitulo IV – </tspan></text>
</g><g
       id="g406"
       transform="matrix(-0.00200586,2.2298933,-2.2298933,-0.00200586,1153.2719,-1024.9552)"><text
         transform="matrix(1,0,0,-1,85.9,346.6)"
         id="text408"><tspan
           style="font-size:10.60000038px;font-variant:normal;font-weight:bold;writing-mode:lr-tb;fill:#000000;fill-opacity:1;fill-rule:nonzero;stroke:none;font-family:Times New Roman;-inkscape-font-specification:TimesNewRomanPS-BoldMT"
           x="0 6.9959998 12.296 17.596001 20.500401 26.393999 31.5986 36.294399 39.198799 44.498798 50.392399 52.989399 58.882999 63.5788 66.175797 69.769203 72.567596 77.263397 86.061401 91.361397 93.958397 99.851997 102.7564 108.0564 110.9608 114.4588 119.7588"
           y="0"
           sodipodi:role="line"
           id="tspan410">Evaluación de firma digital</tspan></text>
</g><g
       id="g412"
       transform="matrix(-0.00200586,2.2298933,-2.2298933,-0.00200586,1153.2719,-1024.9552)"><text
         transform="matrix(1,0,0,-1,85.9,332.1)"
         id="text414"><tspan
           style="font-size:10.60000038px;font-variant:normal;font-weight:bold;writing-mode:lr-tb;fill:#000000;fill-opacity:1;fill-rule:nonzero;stroke:none;font-family:Times New Roman;-inkscape-font-specification:TimesNewRomanPS-BoldMT"
           x="0 7.6002002 12.296 18.1896 23.489599 28.09 32.785801 35.690201 40.9902 46.883801 49.480801 55.374401 60.070202 62.974602 65.571602 73.256599 78.461197 84.354797 87.259201 90.8526 96.746201 99.650597 104.9506 107.4522 114.957 117.4586 120.9566"
           y="0"
           sodipodi:role="line"
           id="tspan416">Redacción del Capitulo V - </tspan></text>
</g><g
       id="g418"
       transform="matrix(-0.00200586,2.2298933,-2.2298933,-0.00200586,1153.2719,-1024.9552)"><text
         transform="matrix(1,0,0,-1,85.9,320.4)"
         id="text420"><tspan
           style="font-size:10.60000038px;font-variant:normal;font-weight:bold;writing-mode:lr-tb;fill:#000000;fill-opacity:1;fill-rule:nonzero;stroke:none;font-family:Times New Roman;-inkscape-font-specification:TimesNewRomanPS-BoldMT"
           x="0 7.6002002 13.4938 18.7938 21.6982 24.6026 28.7048 31.6092 35.7962 38.3932 46.078201 51.282799 55.469799 58.9678 64.267799 66.864799 73.9562 78.556602 84.450203 89.146004 92.643997 95.548401 100.2442 103.1486"
           y="0"
           sodipodi:role="line"
           id="tspan422">Análisis Costo Beneficio</tspan></text>
</g><g
       id="g424"
       transform="matrix(-0.00200586,2.2298933,-2.2298933,-0.00200586,1153.2719,-1024.9552)"><text
         transform="matrix(1,0,0,-1,85.9,305.8)"
         id="text426"><tspan
           style="font-size:10.60000038px;font-variant:normal;font-weight:bold;writing-mode:lr-tb;fill:#000000;fill-opacity:1;fill-rule:nonzero;stroke:none;font-family:Times New Roman;-inkscape-font-specification:TimesNewRomanPS-BoldMT"
           x="0 7.6002002 12.296 18.1896 23.489599 28.09 32.785801 35.690201 40.9902 46.883801 49.480801 55.374401 60.070202 62.974602 65.571602 73.256599 78.461197 84.354797 87.259201 90.8526 96.746201 99.650597 104.9506 107.4522 115.0524 119.1546 121.7516 125.345"
           y="0"
           sodipodi:role="line"
           id="tspan428">Redacción del Capitulo VI - </tspan></text>
</g><g
       id="g430"
       transform="matrix(2.2298942,0,0,2.2298942,-620.28171,-1046.2772)"><text
         transform="matrix(-8.995315e-4,0.9999996,0.9999996,8.995315e-4,0,0)"
         id="text432"
         x="94.746429"
         y="501.26154"
         style="font-size:12px"><tspan
           style="font-size:10.60000038px;font-variant:normal;font-weight:bold;writing-mode:lr-tb;fill:#000000;fill-opacity:1;fill-rule:nonzero;stroke:none;font-family:Times New Roman;-inkscape-font-specification:TimesNewRomanPS-BoldMT"
           x="94.746429 102.34663 107.64663 113.54023 118.23603 121.14043 127.03403 131.13623 134.04063 139.34064 145.23424 149.83463 154.02164 156.61864 161.91864 164.51564 172.20064 176.89644 181.49683 186.79683 195.59483 200.29063 206.18423 212.07784 217.28244 221.97823 224.88263 230.18263 236.07623 240.67664"
           y="501.26154"
           sodipodi:role="line"
           id="tspan434">Conclusiones y Recomendaciones</tspan></text>
</g></g></svg>